<?xml version="1.0" encoding="UTF-8" standalone="no"?>
<!DOCTYPE svg PUBLIC "-//W3C//DTD SVG 1.1//EN"
 "http://www.w3.org/Graphics/SVG/1.1/DTD/svg11.dtd">
<!-- Generated by graphviz version 2.40.1 (20161225.0304)
 -->
<!-- Title: models_diagram Pages: 1 -->
<svg width="563pt" height="153pt"
 viewBox="0.00 0.00 563.45 153.00" xmlns="http://www.w3.org/2000/svg" xmlns:xlink="http://www.w3.org/1999/xlink">
<g id="graph0" class="graph" transform="scale(1 1) rotate(0) translate(4 149)">
<title>models_diagram</title>
<polygon fill="transparent" stroke="transparent" points="-4,4 -4,-149 559.4497,-149 559.4497,4 -4,4"/>
<!-- _diagram_info -->
<g id="node1" class="node">
<title>_diagram_info</title>
<text text-anchor="start" x="8" y="-130.6" font-family="Times,serif" font-size="13.00" fill="#000000">Models diagram</text>
<text text-anchor="start" x="8" y="-117.6" font-family="Times,serif" font-size="13.00" fill="#000000">Date: Aug 31 2017 &#45; 13:02</text>
<text text-anchor="start" x="8" y="-104.6" font-family="Times,serif" font-size="13.00" fill="#000000">Migration version: 20170831155732</text>
<text text-anchor="start" x="8" y="-91.6" font-family="Times,serif" font-size="13.00" fill="#000000">Generated by RailRoady 1.5.3</text>
<text text-anchor="start" x="8" y="-78.6" font-family="Times,serif" font-size="13.00" fill="#000000">http://railroady.prestonlee.com</text>
</g>
<!-- ApplicationRecord -->
<g id="node2" class="node">
<title>ApplicationRecord</title>
<ellipse fill="none" stroke="#000000" cx="302.4497" cy="-108.5" rx="77.2916" ry="18"/>
<text text-anchor="middle" x="302.4497" y="-104.3" font-family="Times,serif" font-size="14.00" fill="#000000">ApplicationRecord</text>
</g>
<!-- Category -->
<g id="node3" class="node">
<title>Category</title>
<ellipse fill="none" stroke="#000000" cx="440.4497" cy="-108.5" rx="42.5456" ry="18"/>
<text text-anchor="middle" x="440.4497" y="-104.3" font-family="Times,serif" font-size="14.00" fill="#000000">Category</text>
</g>
<!-- Item -->
<g id="node4" class="node">
<title>Item</title>
<ellipse fill="none" stroke="#000000" cx="484.4497" cy="-18" rx="27" ry="18"/>
<text text-anchor="middle" x="484.4497" y="-13.8" font-family="Times,serif" font-size="14.00" fill="#000000">Item</text>
</g>
<!-- Category&#45;&gt;Item -->
<g id="edge1" class="edge">
<title>Category&#45;&gt;Item</title>
<path fill="none" stroke="#686e7a" d="M452.8357,-83.0243C458.6942,-70.9745 465.6849,-56.5958 471.6011,-44.4272"/>
<ellipse fill="none" stroke="#686e7a" cx="450.8917" cy="-87.0227" rx="4" ry="4"/>
<polygon fill="#686e7a" stroke="#686e7a" points="471.7008,-44.2221 480.1204,-37.1963 473.887,-39.7254 476.0733,-35.2287 476.0733,-35.2287 476.0733,-35.2287 473.887,-39.7254 472.0263,-33.2611 471.7008,-44.2221 471.7008,-44.2221"/>
</g>
<!-- User -->
<g id="node5" class="node">
<title>User</title>
<ellipse fill="none" stroke="#000000" cx="528.4497" cy="-108.5" rx="27" ry="18"/>
<text text-anchor="middle" x="528.4497" y="-104.3" font-family="Times,serif" font-size="14.00" fill="#000000">User</text>
</g>
<!-- User&#45;&gt;Item -->
<g id="edge2" class="edge">
<title>User&#45;&gt;Item</title>
<path fill="none" stroke="#4e2228" d="M516.2765,-83.462C510.414,-71.4039 503.3798,-56.9357 497.4169,-44.6711"/>
<ellipse fill="none" stroke="#4e2228" cx="518.217" cy="-87.4533" rx="4" ry="4"/>
<polygon fill="#4e2228" stroke="#4e2228" points="497.2798,-44.3892 496.9543,-33.4281 495.0936,-39.8925 492.9073,-35.3957 492.9073,-35.3957 492.9073,-35.3957 495.0936,-39.8925 488.8603,-37.3634 497.2798,-44.3892 497.2798,-44.3892"/>
</g>
</g>
</svg>
