<?xml version="1.0" encoding="UTF-8" standalone="no"?>
<!DOCTYPE svg PUBLIC "-//W3C//DTD SVG 1.1//EN"
 "http://www.w3.org/Graphics/SVG/1.1/DTD/svg11.dtd">
<!-- Generated by graphviz version 2.40.1 (20161225.0304)
 -->
<!-- Title: models_diagram Pages: 1 -->
<svg width="919pt" height="260pt"
 viewBox="0.00 0.00 919.31 260.00" xmlns="http://www.w3.org/2000/svg" xmlns:xlink="http://www.w3.org/1999/xlink">
<g id="graph0" class="graph" transform="scale(1 1) rotate(0) translate(4 256)">
<title>models_diagram</title>
<polygon fill="transparent" stroke="transparent" points="-4,4 -4,-256 915.312,-256 915.312,4 -4,4"/>
<!-- _diagram_info -->
<g id="node1" class="node">
<title>_diagram_info</title>
<text text-anchor="start" x="8" y="-223.6" font-family="Times,serif" font-size="13.00" fill="#000000">Models diagram</text>
<text text-anchor="start" x="8" y="-210.6" font-family="Times,serif" font-size="13.00" fill="#000000">Date: Aug 31 2017 &#45; 13:02</text>
<text text-anchor="start" x="8" y="-197.6" font-family="Times,serif" font-size="13.00" fill="#000000">Migration version: 20170831155732</text>
<text text-anchor="start" x="8" y="-184.6" font-family="Times,serif" font-size="13.00" fill="#000000">Generated by RailRoady 1.5.3</text>
<text text-anchor="start" x="8" y="-171.6" font-family="Times,serif" font-size="13.00" fill="#000000">http://railroady.prestonlee.com</text>
</g>
<!-- ApplicationRecord -->
<g id="node2" class="node">
<title>ApplicationRecord</title>
<ellipse fill="none" stroke="#000000" cx="302.4497" cy="-201.5" rx="77.2916" ry="18"/>
<text text-anchor="middle" x="302.4497" y="-197.3" font-family="Times,serif" font-size="14.00" fill="#000000">ApplicationRecord</text>
</g>
<!-- Category -->
<g id="node3" class="node">
<title>Category</title>
<path fill="none" stroke="#000000" d="M409.5874,-158.5C409.5874,-158.5 633.312,-158.5 633.312,-158.5 639.312,-158.5 645.312,-164.5 645.312,-170.5 645.312,-170.5 645.312,-232.5 645.312,-232.5 645.312,-238.5 639.312,-244.5 633.312,-244.5 633.312,-244.5 409.5874,-244.5 409.5874,-244.5 403.5874,-244.5 397.5874,-238.5 397.5874,-232.5 397.5874,-232.5 397.5874,-170.5 397.5874,-170.5 397.5874,-164.5 403.5874,-158.5 409.5874,-158.5"/>
<text text-anchor="middle" x="521.4497" y="-229.3" font-family="Times,serif" font-size="14.00" fill="#000000">Category</text>
<polyline fill="none" stroke="#000000" points="397.5874,-222.5 645.312,-222.5 "/>
<text text-anchor="start" x="405.5874" y="-207.3" font-family="Times,serif" font-size="14.00" fill="#000000">id :integer</text>
<text text-anchor="start" x="405.5874" y="-193.3" font-family="Times,serif" font-size="14.00" fill="#000000">name :character varying</text>
<text text-anchor="start" x="405.5874" y="-179.3" font-family="Times,serif" font-size="14.00" fill="#000000">created_at :timestamp without time zone</text>
<text text-anchor="start" x="405.5874" y="-165.3" font-family="Times,serif" font-size="14.00" fill="#000000">updated_at :timestamp without time zone</text>
</g>
<!-- Item -->
<g id="node4" class="node">
<title>Item</title>
<path fill="none" stroke="#000000" d="M542.5874,-.5C542.5874,-.5 766.312,-.5 766.312,-.5 772.312,-.5 778.312,-6.5 778.312,-12.5 778.312,-12.5 778.312,-102.5 778.312,-102.5 778.312,-108.5 772.312,-114.5 766.312,-114.5 766.312,-114.5 542.5874,-114.5 542.5874,-114.5 536.5874,-114.5 530.5874,-108.5 530.5874,-102.5 530.5874,-102.5 530.5874,-12.5 530.5874,-12.5 530.5874,-6.5 536.5874,-.5 542.5874,-.5"/>
<text text-anchor="middle" x="654.4497" y="-99.3" font-family="Times,serif" font-size="14.00" fill="#000000">Item</text>
<polyline fill="none" stroke="#000000" points="530.5874,-92.5 778.312,-92.5 "/>
<text text-anchor="start" x="538.5874" y="-77.3" font-family="Times,serif" font-size="14.00" fill="#000000">id :integer</text>
<text text-anchor="start" x="538.5874" y="-63.3" font-family="Times,serif" font-size="14.00" fill="#000000">serial :integer</text>
<text text-anchor="start" x="538.5874" y="-49.3" font-family="Times,serif" font-size="14.00" fill="#000000">category_id :integer</text>
<text text-anchor="start" x="538.5874" y="-35.3" font-family="Times,serif" font-size="14.00" fill="#000000">created_at :timestamp without time zone</text>
<text text-anchor="start" x="538.5874" y="-21.3" font-family="Times,serif" font-size="14.00" fill="#000000">updated_at :timestamp without time zone</text>
<text text-anchor="start" x="538.5874" y="-7.3" font-family="Times,serif" font-size="14.00" fill="#000000">user_id :integer</text>
</g>
<!-- Category&#45;&gt;Item -->
<g id="edge1" class="edge">
<title>Category&#45;&gt;Item</title>
<path fill="none" stroke="#3dda4e" d="M566.798,-152.4011C575.8509,-142.5994 585.4877,-132.1657 594.9343,-121.9378"/>
<ellipse fill="none" stroke="#3dda4e" cx="564.0681" cy="-155.3568" rx="4" ry="4"/>
<polygon fill="#3dda4e" stroke="#3dda4e" points="594.9832,-121.8847 605.0739,-117.5919 598.3757,-118.2117 601.7682,-114.5386 601.7682,-114.5386 601.7682,-114.5386 598.3757,-118.2117 598.4624,-111.4854 594.9832,-121.8847 594.9832,-121.8847"/>
</g>
<!-- User -->
<g id="node5" class="node">
<title>User</title>
<path fill="none" stroke="#000000" d="M675.5874,-151.5C675.5874,-151.5 899.312,-151.5 899.312,-151.5 905.312,-151.5 911.312,-157.5 911.312,-163.5 911.312,-163.5 911.312,-239.5 911.312,-239.5 911.312,-245.5 905.312,-251.5 899.312,-251.5 899.312,-251.5 675.5874,-251.5 675.5874,-251.5 669.5874,-251.5 663.5874,-245.5 663.5874,-239.5 663.5874,-239.5 663.5874,-163.5 663.5874,-163.5 663.5874,-157.5 669.5874,-151.5 675.5874,-151.5"/>
<text text-anchor="middle" x="787.4497" y="-236.3" font-family="Times,serif" font-size="14.00" fill="#000000">User</text>
<polyline fill="none" stroke="#000000" points="663.5874,-229.5 911.312,-229.5 "/>
<text text-anchor="start" x="671.5874" y="-214.3" font-family="Times,serif" font-size="14.00" fill="#000000">id :integer</text>
<text text-anchor="start" x="671.5874" y="-200.3" font-family="Times,serif" font-size="14.00" fill="#000000">nombre :character varying</text>
<text text-anchor="start" x="671.5874" y="-186.3" font-family="Times,serif" font-size="14.00" fill="#000000">email :character varying</text>
<text text-anchor="start" x="671.5874" y="-172.3" font-family="Times,serif" font-size="14.00" fill="#000000">created_at :timestamp without time zone</text>
<text text-anchor="start" x="671.5874" y="-158.3" font-family="Times,serif" font-size="14.00" fill="#000000">updated_at :timestamp without time zone</text>
</g>
<!-- User&#45;&gt;Item -->
<g id="edge2" class="edge">
<title>User&#45;&gt;Item</title>
<path fill="none" stroke="#e47c50" d="M735.3088,-145.0467C728.4676,-137.6397 721.4136,-130.0023 714.4553,-122.4685"/>
<ellipse fill="none" stroke="#e47c50" cx="738.2188" cy="-148.1973" rx="4" ry="4"/>
<polygon fill="#e47c50" stroke="#e47c50" points="714.3254,-122.3278 710.8461,-111.9284 710.9329,-118.6547 707.5404,-114.9817 707.5404,-114.9817 707.5404,-114.9817 710.9329,-118.6547 704.2347,-118.0349 714.3254,-122.3278 714.3254,-122.3278"/>
</g>
</g>
</svg>
