<?xml version="1.0" encoding="UTF-8" standalone="no"?>
<!DOCTYPE svg PUBLIC "-//W3C//DTD SVG 1.1//EN"
 "http://www.w3.org/Graphics/SVG/1.1/DTD/svg11.dtd">
<!-- Generated by graphviz version 2.40.1 (20161225.0304)
 -->
<!-- Title: models_diagram Pages: 1 -->
<svg width="491pt" height="153pt"
 viewBox="0.00 0.00 490.97 153.00" xmlns="http://www.w3.org/2000/svg" xmlns:xlink="http://www.w3.org/1999/xlink">
<g id="graph0" class="graph" transform="scale(1 1) rotate(0) translate(4 149)">
<title>models_diagram</title>
<polygon fill="transparent" stroke="transparent" points="-4,4 -4,-149 486.9725,-149 486.9725,4 -4,4"/>
<!-- _diagram_info -->
<g id="node1" class="node">
<title>_diagram_info</title>
<text text-anchor="start" x="8" y="-130.6" font-family="Times,serif" font-size="13.00" fill="#000000">Models diagram</text>
<text text-anchor="start" x="8" y="-117.6" font-family="Times,serif" font-size="13.00" fill="#000000">Date: Aug 31 2017 &#45; 11:33</text>
<text text-anchor="start" x="8" y="-104.6" font-family="Times,serif" font-size="13.00" fill="#000000">Migration version: 20170831142313</text>
<text text-anchor="start" x="8" y="-91.6" font-family="Times,serif" font-size="13.00" fill="#000000">Generated by RailRoady 1.5.3</text>
<text text-anchor="start" x="8" y="-78.6" font-family="Times,serif" font-size="13.00" fill="#000000">http://railroady.prestonlee.com</text>
</g>
<!-- ApplicationRecord -->
<g id="node2" class="node">
<title>ApplicationRecord</title>
<ellipse fill="none" stroke="#000000" cx="302.4497" cy="-108.5" rx="77.2916" ry="18"/>
<text text-anchor="middle" x="302.4497" y="-104.3" font-family="Times,serif" font-size="14.00" fill="#000000">ApplicationRecord</text>
</g>
<!-- Category -->
<g id="node3" class="node">
<title>Category</title>
<ellipse fill="none" stroke="#000000" cx="440.4497" cy="-108.5" rx="42.5456" ry="18"/>
<text text-anchor="middle" x="440.4497" y="-104.3" font-family="Times,serif" font-size="14.00" fill="#000000">Category</text>
</g>
<!-- Item -->
<g id="node4" class="node">
<title>Item</title>
<ellipse fill="none" stroke="#000000" cx="440.4497" cy="-18" rx="27" ry="18"/>
<text text-anchor="middle" x="440.4497" y="-13.8" font-family="Times,serif" font-size="14.00" fill="#000000">Item</text>
</g>
<!-- Category&#45;&gt;Item -->
<g id="edge1" class="edge">
<title>Category&#45;&gt;Item</title>
<path fill="none" stroke="#8bb97b" d="M440.4497,-81.9687C440.4497,-70.8402 440.4497,-57.878 440.4497,-46.5429"/>
<ellipse fill="none" stroke="#8bb97b" cx="440.4498" cy="-86.186" rx="4" ry="4"/>
<polygon fill="#8bb97b" stroke="#8bb97b" points="440.4498,-46.2868 444.9497,-36.2867 440.4498,-41.2868 440.4497,-36.2868 440.4497,-36.2868 440.4497,-36.2868 440.4498,-41.2868 435.9497,-36.2868 440.4498,-46.2868 440.4498,-46.2868"/>
</g>
</g>
</svg>
